<?xml version="1.0" encoding="iso-8859-1"?>
<svg version="1.1" id="Layer_1" xmlns="http://www.w3.org/2000/svg" xmlns:xlink="http://www.w3.org/1999/xlink" x="0px"
     y="0px"
     viewBox="0 0 493.456 493.456" xml:space="preserve">
	<g>
		<path d="M246.726,0C110.682,0.004,0.002,110.688,0.002,246.732s110.68,246.724,246.724,246.724
			c136.048,0,246.728-110.68,246.728-246.724C493.454,110.684,382.774,0,246.726,0z M275.034,259.616l-100.968,70.64
			c-4.124,2.868-6.704,3.468-8.14,3.468c-1.048,0-2.256-0.264-3.344-2.244c-0.844-1.54-1.844-4.592-1.844-10.368V172.596h0
			c0-3.792,0.5-12.608,5.188-12.608c1.436,0,4.016,0.604,8.156,3.48l100.056,70.612c5.28,3.668,8.296,8.536,8.296,13.376
			C282.434,251.988,279.81,256.3,275.034,259.616z M332.738,331.164c0,2.584-2.32,4.772-5.064,4.772h-6.752
			c-2.88,0-4.188-2.524-4.188-4.868V162.856h0.004c0-2.804,2.064-5.084,4.6-5.084h5.744c2.852,0,5.656,2.412,5.656,4.868V331.164z"
        />
	</g>
</svg>
