<svg width="400" height="400" viewBox="0 0 400 400" fill="none" xmlns="http://www.w3.org/2000/svg">
    <circle cx="200" cy="200" r="200" fill="white"/>
    <path d="M199.998 0C89.7199 0.00324244 0.00170898 89.7247 0.00170898 200.003C0.00170898 310.282 89.7199 400 199.998 400C310.28 400 399.999 310.282 399.999 200.003C399.999 89.7215 310.28 0 199.998 0ZM222.945 210.447L141.1 267.709C137.757 270.033 135.665 270.52 134.501 270.52C133.652 270.52 132.673 270.306 131.791 268.701C131.106 267.452 130.296 264.978 130.296 260.296V139.908C130.296 136.834 130.701 129.688 134.501 129.688C135.665 129.688 137.757 130.177 141.113 132.509L222.219 189.747C226.499 192.721 228.944 196.667 228.944 200.59C228.944 204.264 226.817 207.759 222.945 210.447ZM269.721 268.445C269.721 270.539 267.84 272.313 265.616 272.313H260.142C257.808 272.313 256.748 270.267 256.748 268.367V132.013H256.751C256.751 129.74 258.424 127.891 260.48 127.891H265.136C267.448 127.891 269.721 129.847 269.721 131.837V268.445Z"
          fill="black"/>
</svg>
