<?xml version="1.0" encoding="iso-8859-1"?>
<svg version="1.1" id="Layer_1" xmlns="http://www.w3.org/2000/svg" xmlns:xlink="http://www.w3.org/1999/xlink" x="0px"
     y="0px"
     viewBox="0 0 493.46 493.46" xml:space="preserve">
	<g>
		<path d="M246.732,0C110.684,0,0.004,110.68,0.004,246.728c0,136.044,110.68,246.732,246.728,246.732
			s246.724-110.688,246.724-246.732C493.456,110.68,382.78,0,246.732,0z M219.724,359.024c0,3.888-2.376,7.82-6.916,7.82h-9
			c-4.38,0-8.084-3.524-8.084-7.696V134.44c0-4.02,4.312-7.82,8.876-7.82h7.656c4.12,0,7.468,3.64,7.468,8.116V359.024z
			 M301.724,359.604c0,3.888-2.376,7.82-6.916,7.82h-9c-4.384,0-8.084-3.524-8.084-7.696V135.02c0-4.02,4.312-7.82,8.876-7.82h7.656
			c4.116,0,7.468,3.64,7.468,8.116V359.604z"/>
	</g>
</svg>
