<svg width="400" height="400" viewBox="0 0 400 400" fill="none" xmlns="http://www.w3.org/2000/svg">
    <circle cx="200" cy="200" r="200" fill="white"/>
    <path d="M200.002 0C89.7207 0 0.00317383 89.7175 0.00317383 199.998C0.00317383 310.276 89.7207 400 200.002 400C310.282 400 399.997 310.276 399.997 199.998C399.997 89.7175 310.282 0 200.002 0ZM178.109 291.026C178.109 294.177 176.183 297.365 172.503 297.365H165.207C161.657 297.365 158.654 294.508 158.654 291.126V108.977C158.654 105.719 162.15 102.639 165.849 102.639H172.055C175.395 102.639 178.109 105.589 178.109 109.217V291.026ZM244.578 291.496C244.578 294.648 242.652 297.835 238.972 297.835H231.677C228.123 297.835 225.124 294.978 225.124 291.596V109.448C225.124 106.189 228.619 103.109 232.319 103.109H238.525C241.861 103.109 244.578 106.059 244.578 109.688V291.496Z"
          fill="black"/>
</svg>
