<?xml version="1.0" encoding="iso-8859-1"?>
<!-- Generator: Adobe Illustrator 19.0.0, SVG Export Plug-In . SVG Version: 6.00 Build 0)  -->
<svg version="1.1" id="Capa_1" xmlns="http://www.w3.org/2000/svg" xmlns:xlink="http://www.w3.org/1999/xlink" x="0px" y="0px"
	 viewBox="0 0 240.877 240.877" style="enable-background:new 0 0 240.877 240.877;" xml:space="preserve">
<g>
	<g id="First_Page">
		<path d="M113.983,120.483l98.564-99.671c4.704-4.752,4.704-12.439,0-17.191c-4.704-4.74-12.319-4.74-17.011,0L88.466,111.882
			c-4.632,4.668-4.547,12.584,0,17.179l107.07,108.261c4.704,4.74,12.319,4.74,17.011,0c4.692-4.74,4.704-12.439,0-17.179
			L113.983,120.483z"/>
		<path d="M36.832,0c-6.641,0-12.03,5.39-12.03,12.03v216.545c0,6.641,5.39,12.03,12.03,12.03s12.03-5.39,12.03-12.03V12.03
			C48.863,5.378,43.473,0,36.832,0z"/>
	</g>
	<g>
	</g>
	<g>
	</g>
	<g>
	</g>
	<g>
	</g>
	<g>
	</g>
	<g>
	</g>
</g>
<g>
</g>
<g>
</g>
<g>
</g>
<g>
</g>
<g>
</g>
<g>
</g>
<g>
</g>
<g>
</g>
<g>
</g>
<g>
</g>
<g>
</g>
<g>
</g>
<g>
</g>
<g>
</g>
<g>
</g>
</svg>
