<svg width="400" height="400" viewBox="0 0 400 400" fill="none" xmlns="http://www.w3.org/2000/svg">
        <circle cx="200" cy="200" r="200" fill="white"/>
        <path d="M200.002 0C89.7199 0 0.00170898 89.7215 0.00170898 200C0.00170898 310.279 89.7199 400 200.002 400C310.284 400 399.999 310.279 399.999 200C399.999 89.7215 310.284 0 200.002 0ZM143.253 268.364C143.253 270.264 142.189 272.31 139.858 272.31H134.385C132.16 272.31 130.283 270.539 130.283 268.441V131.831C130.283 129.84 132.553 127.885 134.868 127.885H139.524C141.579 127.885 143.253 129.733 143.253 132.006V268.364ZM269.708 260.293C269.708 264.975 268.894 267.449 268.21 268.701C267.331 270.299 266.352 270.52 265.502 270.52C264.338 270.52 262.244 270.03 258.901 267.709L177.055 210.447C173.19 207.762 171.06 204.264 171.06 200.59C171.06 196.667 173.505 192.721 177.788 189.747L258.891 132.509C262.247 130.177 264.338 129.688 265.502 129.688C269.299 129.688 269.708 136.834 269.708 139.908V260.293Z"
              fill="black"/>
</svg>
